<svg width="16" height="16" viewBox="0 0 16 16" fill="none" xmlns="http://www.w3.org/2000/svg">
<g clip-path="url(#clip0_13_9)">
<rect width="16" height="16" rx="8" fill="white"/>
<path fill-rule="evenodd" clip-rule="evenodd" d="M9.49999 -1.19209e-07C9.49999 -0.828427 8.82842 -1.5 7.99999 -1.5C7.17157 -1.5 6.49999 -0.828427 6.49999 0L6.49999 8.37867L4.06066 5.93934C3.47487 5.35355 2.52513 5.35355 1.93934 5.93934C1.35355 6.52513 1.35355 7.47487 1.93934 8.06066L6.93934 13.0607C7.52513 13.6464 8.47487 13.6464 9.06066 13.0607L14.0607 8.06066C14.6464 7.47487 14.6464 6.52513 14.0607 5.93934C13.4749 5.35355 12.5251 5.35355 11.9393 5.93934L9.49999 8.37868V-1.19209e-07Z" fill="#F54B39"/>
</g>
<defs>
<clipPath id="clip0_13_9">
<rect width="16" height="16" rx="8" fill="white"/>
</clipPath>
</defs>
</svg>
