<svg width="16" height="16" viewBox="0 0 16 16" fill="none" xmlns="http://www.w3.org/2000/svg">
<g clip-path="url(#clip0_13_12)">
<rect width="16" height="16" rx="8" fill="white"/>
<path fill-rule="evenodd" clip-rule="evenodd" d="M6.50001 15.5C6.50001 16.3284 7.17158 17 8.00001 17C8.82843 17 9.50001 16.3284 9.50001 15.5L9.50001 7.12133L11.9393 9.56066C12.5251 10.1464 13.4749 10.1464 14.0607 9.56066C14.6464 8.97487 14.6464 8.02513 14.0607 7.43934L9.06066 2.43934C8.47487 1.85355 7.52513 1.85355 6.93934 2.43934L1.93934 7.43934C1.35355 8.02513 1.35355 8.97487 1.93934 9.56066C2.52513 10.1464 3.47487 10.1464 4.06066 9.56066L6.50001 7.12131L6.50001 15.5Z" fill="#1AD7D4"/>
</g>
<defs>
<clipPath id="clip0_13_12">
<rect width="16" height="16" rx="8" fill="white"/>
</clipPath>
</defs>
</svg>
